<svg width="19" height="18" viewBox="0 0 19 18" fill="none" xmlns="http://www.w3.org/2000/svg">
<g id="Symbol&#226;&#128;&#148;FA Solid&#226;&#128;&#148;comment-dots" clip-path="url(#clip0_7465_2044)">
<path id="Vector" d="M9.33398 1.09338C4.36289 1.09338 0.365625 4.36713 0.365625 8.40588C0.365625 10.1503 1.11621 11.745 2.36848 13.0008C1.92902 14.7716 0.460547 16.3501 0.442969 16.3677C0.363867 16.4468 0.341895 16.5693 0.390235 16.6748C0.434145 16.7802 0.531598 16.8423 0.645856 16.8423C2.97496 16.8423 4.69234 15.7258 5.58882 15.0356C6.73597 15.4663 8.01531 15.7173 9.3646 15.7173C14.3357 15.7173 18.333 12.4432 18.333 8.43647C18.333 4.42971 14.3051 1.09338 9.33398 1.09338ZM4.80234 9.53088C4.17832 9.53088 3.67734 9.0299 3.67734 8.43752C3.67734 7.84514 4.17832 7.31252 4.80234 7.31252C5.42637 7.31252 5.92734 7.8135 5.92734 8.43752C5.92734 9.06154 5.45625 9.53088 4.80234 9.53088ZM9.33398 9.53088C8.70996 9.53088 8.24062 9.0299 8.24062 8.43752C8.24062 7.84514 8.7416 7.31252 9.33398 7.31252C9.92636 7.31252 10.4273 7.8135 10.4273 8.43752C10.4273 9.06154 9.95976 9.53088 9.33398 9.53088ZM13.8023 9.53088C13.1783 9.53088 12.6773 9.0299 12.6773 8.43752C12.6773 7.84514 13.1783 7.31252 13.8023 7.31252C14.4264 7.31252 14.9273 7.8135 14.9273 8.43752C14.9273 9.06154 14.4562 9.53088 13.8023 9.53088Z" fill="white"/>
</g>
<defs>
<clipPath id="clip0_7465_2044">
<rect width="18" height="18" fill="white" transform="translate(0.333984)"/>
</clipPath>
</defs>
</svg>
